<svg xmlns="http://www.w3.org/2000/svg" viewBox="0 0 75.36 628.58"><title>needle</title><g id="Layer_2" data-name="Layer 2"><g id="Object"><path d="M55.86,313.94a18.16,18.16,0,0,1-18.18,18.14V628.57L74.37,324.72a37.56,37.56,0,0,0-36.69-46.13V295.8A18.16,18.16,0,0,1,55.86,313.94Z" fill="#3a6477"/><path d="M0,316.18a37.43,37.43,0,0,0,1,8.53L37.68,628.58h0V332.08a18.14,18.14,0,1,1,0-36.28V278.59h0A37.64,37.64,0,0,0,0,316.18Z" fill="#4c819e"/><path d="M19.5,314.64a18.17,18.17,0,0,1,18.18-18.15V0L1,303.86A37.56,37.56,0,0,0,37.68,350V332.78A18.16,18.16,0,0,1,19.5,314.64Z" fill="#892121"/><path d="M75.36,312.39a37.5,37.5,0,0,0-1-8.53L37.68,0h0V296.49a18.15,18.15,0,1,1,0,36.29V350h0A37.64,37.64,0,0,0,75.36,312.39Z" fill="#682121"/><path d="M5,34.68V80.82a1.91,1.91,0,0,0,1.45,1.85l7.48,1.87,7.64-3.85,8.92,8L37,90.32a1.82,1.82,0,0,0,.46.06,1.84,1.84,0,0,0,.47-.06l30.59-7.65A1.9,1.9,0,0,0,70,80.82V34.68L37.5,42.81Z" fill="#505050"/><path d="M37.5,42.81V90.38a1.84,1.84,0,0,0,.47-.06l30.59-7.65A1.9,1.9,0,0,0,70,80.82V34.68Z" fill="#373737"/><path d="M5,39.88V51.47l32,8a2.19,2.19,0,0,0,.93,0l32-8V39.88L37.5,48Z" fill="#ffe132"/><path d="M38,59.48l32-8V39.88L37.5,48V59.53A2.42,2.42,0,0,0,38,59.48Z" fill="#fac80f"/><path d="M37.5,44.24a1.82,1.82,0,0,1-.46-.06L6.45,36.53a1.91,1.91,0,0,1,0-3.7L37,25.18a1.83,1.83,0,0,1,.93,0l30.59,7.65a1.91,1.91,0,0,1,0,3.7L38,44.18A1.84,1.84,0,0,1,37.5,44.24Z" fill="#646464"/><path d="M38,44.18l30.59-7.65a1.91,1.91,0,0,0,0-3.7L38,25.18a1.84,1.84,0,0,0-.47-.06V44.24A1.84,1.84,0,0,0,38,44.18Z" fill="#505050"/><path d="M29.05,67.81,16.3,64.62a1.91,1.91,0,0,0-2.37,1.86V84.54l16.56,4.14v-19A1.91,1.91,0,0,0,29.05,67.81Z" fill="#ffe132"/><path d="M17.75,85.5l8.92,2.23V71.16l-8.92-2.23Z" fill="#fac80f"/></g></g></svg>